<svg xmlns="http://www.w3.org/2000/svg" xmlns:xlink="http://www.w3.org/1999/xlink" width="62" zoomAndPan="magnify" viewBox="0 0 46.5 779.999981" height="1040" preserveAspectRatio="xMidYMid meet" version="1.0"><defs><clipPath id="3f059849dd"><path d="M 0 4.148438 L 46.003906 4.148438 L 46.003906 731.308594 L 0 731.308594 Z M 0 4.148438 " clip-rule="nonzero"/></clipPath><clipPath id="a9b85e6acb"><path d="M 0 690.644531 L 46.003906 690.644531 L 46.003906 775.851562 L 0 775.851562 Z M 0 690.644531 " clip-rule="nonzero"/></clipPath><clipPath id="c4c14f543a"><path d="M 4.097656 690.644531 C -19.433594 690.644531 -38.507812 709.71875 -38.507812 733.246094 C -38.507812 756.777344 -19.433594 775.851562 4.097656 775.851562 C 27.625 775.851562 46.699219 756.777344 46.699219 733.246094 C 46.699219 709.71875 27.625 690.644531 4.097656 690.644531 Z M 4.097656 690.644531 " clip-rule="nonzero"/></clipPath></defs><g clip-path="url(#3f059849dd)"><path fill="#8c52ff" d="M 0 4.148438 L 46.003906 4.148438 L 46.003906 731.25 L 0 731.25 Z M 0 4.148438 " fill-opacity="1" fill-rule="nonzero"/></g><g clip-path="url(#a9b85e6acb)"><g clip-path="url(#c4c14f543a)"><path fill="#8c52ff" d="M -38.507812 690.644531 L 46.699219 690.644531 L 46.699219 775.851562 L -38.507812 775.851562 Z M -38.507812 690.644531 " fill-opacity="1" fill-rule="nonzero"/></g></g></svg>