<svg xmlns="http://www.w3.org/2000/svg" xmlns:xlink="http://www.w3.org/1999/xlink" width="400" zoomAndPan="magnify" viewBox="0 0 300 119.249998" height="159" preserveAspectRatio="xMidYMid meet" version="1.0"><defs><g/></defs><g fill="#ffffff" fill-opacity="1"><g transform="translate(17.945748, 89.777394)"><g><path d="M 30.21875 -56.375 C 33.351562 -56.375 36.445312 -56.019531 39.5 -55.3125 C 42.5625 -54.601562 44.84375 -53.890625 46.34375 -53.171875 L 48.578125 -52.109375 L 42.390625 -39.71875 C 38.117188 -42 34.0625 -43.140625 30.21875 -43.140625 C 28.082031 -43.140625 26.566406 -42.90625 25.671875 -42.4375 C 24.785156 -41.976562 24.34375 -41.109375 24.34375 -39.828125 C 24.34375 -39.546875 24.378906 -39.257812 24.453125 -38.96875 C 24.523438 -38.6875 24.664062 -38.421875 24.875 -38.171875 C 25.09375 -37.921875 25.289062 -37.707031 25.46875 -37.53125 C 25.644531 -37.351562 25.945312 -37.15625 26.375 -36.9375 C 26.800781 -36.726562 27.140625 -36.570312 27.390625 -36.46875 C 27.640625 -36.363281 28.046875 -36.203125 28.609375 -35.984375 C 29.179688 -35.773438 29.609375 -35.613281 29.890625 -35.5 C 30.179688 -35.394531 30.664062 -35.234375 31.34375 -35.015625 C 32.019531 -34.804688 32.535156 -34.664062 32.890625 -34.59375 C 35.097656 -33.957031 37.019531 -33.242188 38.65625 -32.453125 C 40.289062 -31.671875 42.015625 -30.601562 43.828125 -29.25 C 45.648438 -27.90625 47.054688 -26.195312 48.046875 -24.125 C 49.046875 -22.0625 49.546875 -19.710938 49.546875 -17.078125 C 49.546875 -4.617188 40.894531 1.609375 23.59375 1.609375 C 19.675781 1.609375 15.957031 1.003906 12.4375 -0.203125 C 8.914062 -1.421875 6.375 -2.632812 4.8125 -3.84375 L 2.453125 -5.765625 L 10.140625 -18.6875 C 10.710938 -18.1875 11.460938 -17.597656 12.390625 -16.921875 C 13.316406 -16.242188 14.988281 -15.316406 17.40625 -14.140625 C 19.820312 -12.972656 21.921875 -12.390625 23.703125 -12.390625 C 27.617188 -12.390625 29.578125 -13.707031 29.578125 -16.34375 C 29.578125 -17.550781 29.078125 -18.492188 28.078125 -19.171875 C 27.085938 -19.847656 25.398438 -20.613281 23.015625 -21.46875 C 20.628906 -22.320312 18.757812 -23.101562 17.40625 -23.8125 C 13.988281 -25.59375 11.28125 -27.601562 9.28125 -29.84375 C 7.289062 -32.082031 6.296875 -35.054688 6.296875 -38.765625 C 6.296875 -44.316406 8.445312 -48.640625 12.75 -51.734375 C 17.0625 -54.828125 22.882812 -56.375 30.21875 -56.375 Z M 30.21875 -56.375 "/></g></g></g><g fill="#ffffff" fill-opacity="1"><g transform="translate(50.187041, 89.777394)"><g/></g></g><g fill="#ffffff" fill-opacity="1"><g transform="translate(59.046396, 89.777394)"><g><path d="M 26.484375 -88.09375 L 26.484375 -17.625 L 56.8125 -17.625 L 56.8125 0 L 6.40625 0 L 6.40625 -88.09375 Z M 26.484375 -88.09375 "/></g></g></g><g fill="#8c52ff" fill-opacity="1"><g transform="translate(99.08994, 89.777394)"><g><path d="M 11.578125 -6.5 C 5.492188 -11.914062 2.453125 -18.859375 2.453125 -27.328125 C 2.453125 -35.804688 5.617188 -42.765625 11.953125 -48.203125 C 18.296875 -53.648438 26.128906 -56.375 35.453125 -56.375 C 44.628906 -56.375 52.367188 -53.632812 58.671875 -48.15625 C 64.972656 -42.675781 68.125 -35.734375 68.125 -27.328125 C 68.125 -18.929688 65.046875 -12.007812 58.890625 -6.5625 C 52.734375 -1.113281 44.921875 1.609375 35.453125 1.609375 C 25.628906 1.609375 17.671875 -1.09375 11.578125 -6.5 Z M 26.21875 -36.625 C 23.757812 -34.207031 22.53125 -31.109375 22.53125 -27.328125 C 22.53125 -23.554688 23.703125 -20.476562 26.046875 -18.09375 C 28.398438 -15.707031 31.5 -14.515625 35.34375 -14.515625 C 39.039062 -14.515625 42.082031 -15.722656 44.46875 -18.140625 C 46.851562 -20.566406 48.046875 -23.632812 48.046875 -27.34375 C 48.046875 -31.113281 46.816406 -34.207031 44.359375 -36.625 C 41.910156 -39.039062 38.90625 -40.25 35.34375 -40.25 C 31.71875 -40.25 28.675781 -39.039062 26.21875 -36.625 Z M 26.21875 -36.625 "/></g></g></g><g fill="#8c52ff" fill-opacity="1"><g transform="translate(149.374827, 89.777394)"><g><path d="M 11.578125 -6.5 C 5.492188 -11.914062 2.453125 -18.859375 2.453125 -27.328125 C 2.453125 -35.804688 5.617188 -42.765625 11.953125 -48.203125 C 18.296875 -53.648438 26.128906 -56.375 35.453125 -56.375 C 44.628906 -56.375 52.367188 -53.632812 58.671875 -48.15625 C 64.972656 -42.675781 68.125 -35.734375 68.125 -27.328125 C 68.125 -18.929688 65.046875 -12.007812 58.890625 -6.5625 C 52.734375 -1.113281 44.921875 1.609375 35.453125 1.609375 C 25.628906 1.609375 17.671875 -1.09375 11.578125 -6.5 Z M 26.21875 -36.625 C 23.757812 -34.207031 22.53125 -31.109375 22.53125 -27.328125 C 22.53125 -23.554688 23.703125 -20.476562 26.046875 -18.09375 C 28.398438 -15.707031 31.5 -14.515625 35.34375 -14.515625 C 39.039062 -14.515625 42.082031 -15.722656 44.46875 -18.140625 C 46.851562 -20.566406 48.046875 -23.632812 48.046875 -27.34375 C 48.046875 -31.113281 46.816406 -34.207031 44.359375 -36.625 C 41.910156 -39.039062 38.90625 -40.25 35.34375 -40.25 C 31.71875 -40.25 28.675781 -39.039062 26.21875 -36.625 Z M 26.21875 -36.625 "/></g></g></g><g fill="#ffffff" fill-opacity="1"><g transform="translate(199.661356, 89.777394)"><g><path d="M 62.78125 -47.984375 C 67.90625 -42.398438 70.46875 -35.550781 70.46875 -27.4375 C 70.46875 -19.320312 67.90625 -12.453125 62.78125 -6.828125 C 57.65625 -1.203125 51.144531 1.609375 43.25 1.609375 C 35.988281 1.609375 30.007812 -0.671875 25.3125 -5.234375 L 25.3125 27.765625 L 6.40625 27.765625 L 6.40625 -54.78125 L 25.09375 -54.78125 L 25.09375 -48.578125 L 25.3125 -48.578125 C 30.007812 -53.773438 35.988281 -56.375 43.25 -56.375 C 51.144531 -56.375 57.65625 -53.578125 62.78125 -47.984375 Z M 46.71875 -18.140625 C 49.175781 -20.566406 50.40625 -23.664062 50.40625 -27.4375 C 50.40625 -31.21875 49.226562 -34.296875 46.875 -36.671875 C 44.53125 -39.054688 41.4375 -40.25 37.59375 -40.25 C 33.882812 -40.25 30.835938 -39.039062 28.453125 -36.625 C 26.066406 -34.207031 24.875 -31.144531 24.875 -27.4375 C 24.875 -23.664062 26.101562 -20.566406 28.5625 -18.140625 C 31.019531 -15.722656 34.03125 -14.515625 37.59375 -14.515625 C 41.21875 -14.515625 44.257812 -15.722656 46.71875 -18.140625 Z M 46.71875 -18.140625 "/></g></g></g></svg>