<svg xmlns="http://www.w3.org/2000/svg" xmlns:xlink="http://www.w3.org/1999/xlink" width="400" zoomAndPan="magnify" viewBox="0 0 300 119.249998" height="159" preserveAspectRatio="xMidYMid meet" version="1.0"><defs><g/><clipPath id="6b9b172964"><path d="M 0.9375 0 L 166 0 L 166 118.503906 L 0.9375 118.503906 Z M 0.9375 0 " clip-rule="nonzero"/></clipPath><clipPath id="a1607789e7"><path d="M 62 0 L 266 0 L 266 118.503906 L 62 118.503906 Z M 62 0 " clip-rule="nonzero"/></clipPath><clipPath id="b04d3213a1"><path d="M 165 0 L 299.0625 0 L 299.0625 118.503906 L 165 118.503906 Z M 165 0 " clip-rule="nonzero"/></clipPath></defs><g clip-path="url(#6b9b172964)"><path stroke-linecap="butt" transform="matrix(0.745312, 0, 0, 0.745312, -49.848109, -13.042967)" fill="none" stroke-linejoin="miter" d="M 140.252189 61.750526 C 144.371686 61.750526 148.444013 62.222224 152.474412 63.160379 C 156.525774 64.098534 159.53416 65.036689 161.499569 65.974844 L 164.450303 67.379457 L 156.284684 83.684489 C 150.655753 80.686585 145.309841 79.187634 140.252189 79.187634 C 137.437723 79.187634 135.446109 79.496858 134.282587 80.115307 C 133.113823 80.712791 132.526821 81.855349 132.526821 83.548221 C 132.526821 83.936061 132.573991 84.318661 132.668331 84.680296 C 132.757429 85.047173 132.940867 85.403567 133.213404 85.744238 C 133.512146 86.069185 133.774201 86.341722 134.004809 86.57233 C 134.235417 86.797697 134.623257 87.059751 135.173572 87.358494 C 135.744851 87.636271 136.190343 87.840674 136.51005 87.976942 C 136.855962 88.113211 137.390553 88.333336 138.124306 88.632079 C 138.879023 88.904615 139.43982 89.109018 139.806696 89.245286 C 140.194537 89.386796 140.83395 89.60168 141.730176 89.900422 C 142.621161 90.172959 143.307744 90.356397 143.789925 90.450737 C 146.693489 91.294552 149.224935 92.232708 151.373783 93.265203 C 153.527871 94.292456 155.792022 95.70231 158.171477 97.48428 C 160.571896 99.271492 162.427242 101.525161 163.732274 104.250528 C 165.05827 106.94969 165.723888 110.036692 165.723888 113.516776 C 165.723888 129.900425 154.324516 138.092249 131.536255 138.092249 C 126.384263 138.092249 121.489085 137.306086 116.840237 135.723276 C 112.196631 134.124744 108.842333 132.531452 106.782585 130.953884 L 103.695583 128.411955 L 113.821369 111.388893 C 114.576086 112.049271 115.561411 112.830193 116.772103 113.721179 C 117.988036 114.617405 120.184053 115.838579 123.365395 117.395183 C 126.567701 118.930823 129.334997 119.696022 131.672523 119.696022 C 136.84548 119.696022 139.429337 117.95598 139.429337 114.475896 C 139.429337 112.898327 138.763719 111.66143 137.437723 110.770445 C 136.132691 109.879459 133.899987 108.87317 130.74485 107.751577 C 127.610678 106.629983 125.163089 105.597488 123.396842 104.659333 C 118.889504 102.300842 115.320321 99.648851 112.689294 96.698117 C 110.079231 93.742142 108.774199 89.832288 108.774199 84.958074 C 108.774199 77.657235 111.604388 71.970652 117.254284 67.898325 C 122.930385 63.799792 130.5981 61.750526 140.252189 61.750526 Z M 189.471269 20.010481 L 189.471269 112.793506 L 229.392655 112.793506 L 229.392655 136.001054 L 163.04045 136.001054 L 163.04045 20.010481 Z M 189.471269 20.010481 " stroke="#8c52ff" stroke-width="10.545075" stroke-opacity="1" stroke-miterlimit="4"/></g><g clip-path="url(#a1607789e7)"><path stroke-linecap="butt" transform="matrix(0.745312, 0, 0, 0.745312, -49.848109, -13.042967)" fill="none" stroke-linejoin="miter" d="M 222.568755 127.416148 C 214.560369 120.303988 210.556176 111.168768 210.556176 100.026209 C 210.556176 88.857445 214.717602 79.696019 223.050936 72.531449 C 231.399993 65.345914 241.724941 61.750526 254.010057 61.750526 C 266.096012 61.750526 276.279451 65.366878 284.560374 72.599583 C 292.867502 79.806082 297.023687 88.951785 297.023687 100.026209 C 297.023687 111.079669 292.972324 120.188684 284.869598 127.348014 C 276.772113 134.512585 266.483853 138.092249 254.010057 138.092249 C 241.080287 138.092249 230.603347 134.533549 222.568755 127.416148 Z M 241.824522 87.77254 C 238.601251 90.953882 236.986995 95.036691 236.986995 100.026209 C 236.986995 104.989522 238.533117 109.040885 241.620119 112.175057 C 244.733327 115.31447 248.816137 116.881556 253.873789 116.881556 C 258.748003 116.881556 262.752196 115.288265 265.886368 112.106923 C 269.025781 108.904616 270.592867 104.863736 270.592867 99.989522 C 270.592867 95.026209 268.978612 90.953882 265.7501 87.77254 C 262.526829 84.591198 258.564565 82.997906 253.873789 82.997906 C 249.093914 82.997906 245.073998 84.591198 241.824522 87.77254 Z M 288.784692 127.416148 C 280.776306 120.303988 276.772113 111.168768 276.772113 100.026209 C 276.772113 88.857445 280.93878 79.696019 289.266873 72.531449 C 297.621171 65.345914 307.940878 61.750526 320.231235 61.750526 C 332.311949 61.750526 342.495388 65.366878 350.781552 72.599583 C 359.08868 79.806082 363.239624 88.951785 363.239624 100.026209 C 363.239624 111.079669 359.188261 120.188684 351.090776 127.348014 C 342.98805 134.512585 332.69979 138.092249 320.231235 138.092249 C 307.301465 138.092249 296.819284 134.533549 288.784692 127.416148 Z M 308.0457 87.77254 C 304.817188 90.953882 303.202932 95.036691 303.202932 100.026209 C 303.202932 104.989522 304.749054 109.040885 307.836056 112.175057 C 310.949264 115.31447 315.037315 116.881556 320.094967 116.881556 C 324.969181 116.881556 328.973374 115.288265 332.107546 112.106923 C 335.241718 108.904616 336.808804 104.863736 336.808804 99.989522 C 336.808804 95.026209 335.194549 90.953882 331.971278 87.77254 C 328.742766 84.591198 324.785743 82.997906 320.094967 82.997906 C 315.309851 82.997906 311.295176 84.591198 308.0457 87.77254 Z M 308.0457 87.77254 " stroke="#8c52ff" stroke-width="10.545075" stroke-opacity="1" stroke-miterlimit="4"/></g><g clip-path="url(#b04d3213a1)"><path stroke-linecap="butt" transform="matrix(0.745312, 0, 0, 0.745312, -49.848109, -13.042967)" fill="none" stroke-linejoin="miter" d="M 422.422017 72.803985 C 429.172542 80.151994 432.547804 89.16667 432.547804 99.853253 C 432.547804 110.539837 429.172542 119.5912 422.422017 127.007343 C 415.697698 134.397281 407.123274 138.092249 396.714469 138.092249 C 387.149478 138.092249 379.277361 135.094346 373.098115 129.098538 L 373.098115 172.55766 L 348.208176 172.55766 L 348.208176 63.878408 L 372.820337 63.878408 L 372.820337 72.017822 L 373.098115 72.017822 C 379.277361 65.172958 387.149478 61.750526 396.714469 61.750526 C 407.123274 61.750526 415.697698 65.435012 422.422017 72.803985 Z M 401.279458 112.106923 C 404.502729 108.904616 406.116985 104.821807 406.116985 99.853253 C 406.116985 94.889941 404.570863 90.838578 401.483861 87.704406 C 398.396859 84.570233 394.31929 82.997906 389.261638 82.997906 C 384.387424 82.997906 380.372748 84.591198 377.217612 87.77254 C 374.078199 90.953882 372.511113 94.979039 372.511113 99.853253 C 372.511113 104.821807 374.125369 108.904616 377.35388 112.106923 C 380.603356 115.288265 384.570862 116.881556 389.261638 116.881556 C 394.046754 116.881556 398.050947 115.288265 401.279458 112.106923 Z M 401.279458 112.106923 " stroke="#8c52ff" stroke-width="10.545075" stroke-opacity="1" stroke-miterlimit="4"/></g><g fill="#c0bcfc" fill-opacity="1"><g transform="translate(25.032502, 88.319527)"><g><path d="M 29.65625 -55.328125 C 32.726562 -55.328125 35.765625 -54.976562 38.765625 -54.28125 C 41.773438 -53.582031 44.015625 -52.882812 45.484375 -52.1875 L 47.6875 -51.140625 L 41.609375 -38.984375 C 37.410156 -41.222656 33.425781 -42.34375 29.65625 -42.34375 C 27.5625 -42.34375 26.078125 -42.113281 25.203125 -41.65625 C 24.328125 -41.195312 23.890625 -40.34375 23.890625 -39.09375 C 23.890625 -38.8125 23.925781 -38.53125 24 -38.25 C 24.070312 -37.96875 24.210938 -37.703125 24.421875 -37.453125 C 24.628906 -37.210938 24.816406 -37.003906 24.984375 -36.828125 C 25.160156 -36.660156 25.457031 -36.472656 25.875 -36.265625 C 26.300781 -36.054688 26.632812 -35.894531 26.875 -35.78125 C 27.125 -35.675781 27.523438 -35.519531 28.078125 -35.3125 C 28.640625 -35.101562 29.0625 -34.945312 29.34375 -34.84375 C 29.625 -34.738281 30.09375 -34.582031 30.75 -34.375 C 31.414062 -34.164062 31.925781 -34.023438 32.28125 -33.953125 C 34.445312 -33.328125 36.332031 -32.628906 37.9375 -31.859375 C 39.539062 -31.085938 41.234375 -30.035156 43.015625 -28.703125 C 44.796875 -27.378906 46.175781 -25.703125 47.15625 -23.671875 C 48.132812 -21.648438 48.625 -19.347656 48.625 -16.765625 C 48.625 -4.535156 40.132812 1.578125 23.15625 1.578125 C 19.3125 1.578125 15.660156 0.984375 12.203125 -0.203125 C 8.742188 -1.390625 6.25 -2.578125 4.71875 -3.765625 L 2.40625 -5.65625 L 9.953125 -18.34375 C 10.515625 -17.851562 11.25 -17.273438 12.15625 -16.609375 C 13.0625 -15.941406 14.703125 -15.03125 17.078125 -13.875 C 19.453125 -12.726562 21.515625 -12.15625 23.265625 -12.15625 C 27.109375 -12.15625 29.03125 -13.445312 29.03125 -16.03125 C 29.03125 -17.21875 28.539062 -18.144531 27.5625 -18.8125 C 26.582031 -19.476562 24.921875 -20.226562 22.578125 -21.0625 C 20.242188 -21.90625 18.410156 -22.675781 17.078125 -23.375 C 13.722656 -25.113281 11.066406 -27.082031 9.109375 -29.28125 C 7.160156 -31.488281 6.1875 -34.410156 6.1875 -38.046875 C 6.1875 -43.492188 8.296875 -47.734375 12.515625 -50.765625 C 16.742188 -53.804688 22.457031 -55.328125 29.65625 -55.328125 Z M 29.65625 -55.328125 "/></g></g></g><g fill="#c0bcfc" fill-opacity="1"><g transform="translate(56.676938, 88.319527)"><g/></g></g><g fill="#c0bcfc" fill-opacity="1"><g transform="translate(65.373175, 88.319527)"><g><path d="M 25.984375 -86.453125 L 25.984375 -17.296875 L 55.75 -17.296875 L 55.75 0 L 6.28125 0 L 6.28125 -86.453125 Z M 25.984375 -86.453125 "/></g></g></g><g fill="#8c52ff" fill-opacity="1"><g transform="translate(104.676128, 88.319527)"><g><path d="M 11.359375 -6.390625 C 5.390625 -11.703125 2.40625 -18.515625 2.40625 -26.828125 C 2.40625 -35.140625 5.515625 -41.96875 11.734375 -47.3125 C 17.953125 -52.65625 25.640625 -55.328125 34.796875 -55.328125 C 43.804688 -55.328125 51.398438 -52.632812 57.578125 -47.25 C 63.765625 -41.875 66.859375 -35.066406 66.859375 -26.828125 C 66.859375 -18.585938 63.835938 -11.789062 57.796875 -6.4375 C 51.753906 -1.09375 44.085938 1.578125 34.796875 1.578125 C 25.148438 1.578125 17.335938 -1.078125 11.359375 -6.390625 Z M 25.71875 -35.9375 C 23.3125 -33.5625 22.109375 -30.523438 22.109375 -26.828125 C 22.109375 -23.128906 23.257812 -20.109375 25.5625 -17.765625 C 27.875 -15.421875 30.914062 -14.25 34.6875 -14.25 C 38.320312 -14.25 41.304688 -15.4375 43.640625 -17.8125 C 45.984375 -20.1875 47.15625 -23.191406 47.15625 -26.828125 C 47.15625 -30.523438 45.945312 -33.5625 43.53125 -35.9375 C 41.125 -38.320312 38.175781 -39.515625 34.6875 -39.515625 C 31.125 -39.515625 28.132812 -38.320312 25.71875 -35.9375 Z M 25.71875 -35.9375 "/></g></g></g><g fill="#8c52ff" fill-opacity="1"><g transform="translate(154.029446, 88.319527)"><g><path d="M 11.359375 -6.390625 C 5.390625 -11.703125 2.40625 -18.515625 2.40625 -26.828125 C 2.40625 -35.140625 5.515625 -41.96875 11.734375 -47.3125 C 17.953125 -52.65625 25.640625 -55.328125 34.796875 -55.328125 C 43.804688 -55.328125 51.398438 -52.632812 57.578125 -47.25 C 63.765625 -41.875 66.859375 -35.066406 66.859375 -26.828125 C 66.859375 -18.585938 63.835938 -11.789062 57.796875 -6.4375 C 51.753906 -1.09375 44.085938 1.578125 34.796875 1.578125 C 25.148438 1.578125 17.335938 -1.078125 11.359375 -6.390625 Z M 25.71875 -35.9375 C 23.3125 -33.5625 22.109375 -30.523438 22.109375 -26.828125 C 22.109375 -23.128906 23.257812 -20.109375 25.5625 -17.765625 C 27.875 -15.421875 30.914062 -14.25 34.6875 -14.25 C 38.320312 -14.25 41.304688 -15.4375 43.640625 -17.8125 C 45.984375 -20.1875 47.15625 -23.191406 47.15625 -26.828125 C 47.15625 -30.523438 45.945312 -33.5625 43.53125 -35.9375 C 41.125 -38.320312 38.175781 -39.515625 34.6875 -39.515625 C 31.125 -39.515625 28.132812 -38.320312 25.71875 -35.9375 Z M 25.71875 -35.9375 "/></g></g></g><g fill="#c0bcfc" fill-opacity="1"><g transform="translate(203.383446, 88.319527)"><g><path d="M 61.625 -47.09375 C 66.65625 -41.613281 69.171875 -34.890625 69.171875 -26.921875 C 69.171875 -18.960938 66.65625 -12.222656 61.625 -6.703125 C 56.59375 -1.179688 50.195312 1.578125 42.4375 1.578125 C 35.3125 1.578125 29.445312 -0.660156 24.84375 -5.140625 L 24.84375 27.25 L 6.28125 27.25 L 6.28125 -53.765625 L 24.625 -53.765625 L 24.625 -47.6875 L 24.84375 -47.6875 C 29.445312 -52.78125 35.3125 -55.328125 42.4375 -55.328125 C 50.195312 -55.328125 56.59375 -52.582031 61.625 -47.09375 Z M 45.84375 -17.8125 C 48.257812 -20.1875 49.46875 -23.222656 49.46875 -26.921875 C 49.46875 -30.628906 48.3125 -33.65625 46 -36 C 43.695312 -38.34375 40.660156 -39.515625 36.890625 -39.515625 C 33.253906 -39.515625 30.265625 -38.320312 27.921875 -35.9375 C 25.585938 -33.5625 24.421875 -30.5625 24.421875 -26.9375 C 24.421875 -23.226562 25.625 -20.1875 28.03125 -17.8125 C 30.445312 -15.4375 33.398438 -14.25 36.890625 -14.25 C 40.453125 -14.25 43.4375 -15.4375 45.84375 -17.8125 Z M 45.84375 -17.8125 "/></g></g></g></svg>