<svg xmlns="http://www.w3.org/2000/svg" xmlns:xlink="http://www.w3.org/1999/xlink" width="62" zoomAndPan="magnify" viewBox="0 0 46.5 779.999981" height="1040" preserveAspectRatio="xMidYMid meet" version="1.0"><defs><clipPath id="2ad88bf6f3"><path d="M 0 4.148438 L 46.003906 4.148438 L 46.003906 731.308594 L 0 731.308594 Z M 0 4.148438 " clip-rule="nonzero"/></clipPath><clipPath id="ee9312e7a5"><path d="M 0 690.644531 L 46.003906 690.644531 L 46.003906 775.851562 L 0 775.851562 Z M 0 690.644531 " clip-rule="nonzero"/></clipPath><clipPath id="599000cb97"><path d="M 42.605469 690.644531 C 19.074219 690.644531 0 709.71875 0 733.246094 C 0 756.777344 19.074219 775.851562 42.605469 775.851562 C 66.132812 775.851562 85.207031 756.777344 85.207031 733.246094 C 85.207031 709.71875 66.132812 690.644531 42.605469 690.644531 Z M 42.605469 690.644531 " clip-rule="nonzero"/></clipPath></defs><g clip-path="url(#2ad88bf6f3)"><path fill="#8c52ff" d="M 0 4.148438 L 46.003906 4.148438 L 46.003906 731.25 L 0 731.25 Z M 0 4.148438 " fill-opacity="1" fill-rule="nonzero"/></g><g clip-path="url(#ee9312e7a5)"><g clip-path="url(#599000cb97)"><path fill="#8c52ff" d="M 0 690.644531 L 85.207031 690.644531 L 85.207031 775.851562 L 0 775.851562 Z M 0 690.644531 " fill-opacity="1" fill-rule="nonzero"/></g></g></svg>